<?xml version="1.0" standalone="no"?>
<!DOCTYPE svg PUBLIC "-//W3C//DTD SVG 20010904//EN" "http://www.w3.org/TR/2001/REC-SVG-20010904/DTD/svg10.dtd">
<svg version="1.0" xmlns="http://www.w3.org/2000/svg"
    width="48" height="48" viewBox="0 0 2048 2048"
    preserveAspectRatio="xMidYMid meet">

    <g transform="translate(0.000000,2048.000000) scale(0.100000,-0.100000)"
        fill="#9c27b0" stroke="none">
        <path
            d="M4625 20466 c-181 -34 -374 -144 -515 -292 -115 -121 -182 -232 -236
-394 l-29 -85 -3 -1475 c-2 -1022 1 -1501 8 -1560 53 -411 383 -758 795 -835
119 -23 315 -16 430 15 355 95 634 390 712 750 17 80 18 167 17 1561 -2 1629
1 1548 -65 1719 -55 144 -193 321 -333 427 -71 54 -235 134 -321 158 -82 23
-364 29 -460 11z" />
        <path
            d="M15660 20465 c-74 -15 -139 -39 -242 -91 -245 -122 -432 -350 -510
-621 l-23 -78 0 -1510 0 -1510 23 -90 c29 -116 114 -290 187 -383 139 -178
349 -307 575 -354 127 -27 346 -21 460 12 344 98 614 384 697 736 17 75 18
155 18 1584 l0 1505 -23 85 c-27 102 -87 231 -146 315 -65 91 -210 223 -301
275 -100 56 -226 107 -312 125 -85 18 -314 18 -403 0z" />
        <path
            d="M641 18169 c-206 -24 -418 -114 -574 -243 l-67 -56 2 -8272 3 -8272
65 -53 c133 -108 326 -196 496 -229 83 -15 502 -16 5817 -16 3151 0 5730 2
5732 4 3 2 -21 24 -53 48 -312 242 -629 547 -872 837 l-81 98 -4857 5 -4857 5
-77 22 c-191 55 -334 136 -464 267 -129 129 -205 262 -257 451 l-22 80 0 4840
c0 4611 1 4843 18 4910 23 89 94 239 152 320 166 233 419 377 712 405 148 14
17640 14 17753 0 119 -15 192 -35 287 -80 265 -124 464 -350 550 -627 l28 -88
3 -1958 2 -1957 90 -134 c84 -127 160 -254 264 -446 l46 -85 0 5026 0 5025
-82 47 c-93 52 -231 101 -328 116 -43 7 -507 11 -1367 11 l-1302 0 6 -697 c6
-712 2 -832 -32 -999 -24 -116 -69 -244 -131 -369 -233 -471 -699 -792 -1226
-846 -453 -46 -907 117 -1236 443 -204 201 -334 423 -407 693 -43 159 -45 211
-45 1010 l0 763 -252 7 c-139 3 -1934 5 -3988 3 l-3735 -3 -6 -810 c-6 -898
-3 -855 -76 -1070 -159 -467 -551 -844 -1018 -980 -156 -45 -257 -59 -430 -59
-251 1 -448 45 -662 150 -435 213 -735 592 -846 1069 -20 87 -21 120 -24 892
l-4 801 -137 4 c-290 8 -2441 5 -2511 -3z" />
        <path
            d="M15110 10489 c-664 -53 -1234 -209 -1825 -499 -551 -271 -1018 -615
-1450 -1070 -702 -739 -1160 -1673 -1325 -2705 -118 -739 -50 -1552 192 -2295
251 -771 664 -1444 1239 -2020 663 -664 1483 -1124 2379 -1335 230 -54 504
-100 719 -120 222 -20 703 -20 922 1 335 31 784 124 1099 227 1049 343 1967
1035 2595 1957 183 268 402 677 513 959 118 297 229 696 287 1023 l26 147 -4
768 -3 768 -31 140 c-83 371 -149 593 -266 889 -127 323 -346 725 -549 1009
-881 1234 -2140 1986 -3584 2142 -177 20 -760 28 -934 14z m642 -1239 c762
-52 1487 -337 2108 -829 122 -96 485 -458 582 -581 202 -253 328 -453 468
-742 188 -390 304 -791 356 -1238 21 -183 21 -566 0 -772 -88 -862 -447 -1635
-1053 -2268 -222 -232 -535 -478 -818 -640 -636 -366 -1361 -540 -2083 -501
-779 43 -1490 303 -2105 768 -368 279 -711 656 -954 1051 -283 460 -454 955
-530 1530 -20 157 -23 611 -4 782 63 582 237 1113 525 1600 323 546 804 1020
1361 1340 661 381 1391 551 2147 500z" />
        <path
            d="M15394 8215 c-176 -38 -320 -186 -354 -364 -14 -74 -14 -2948 0
-3022 25 -130 114 -245 238 -306 l76 -38 1116 0 1115 0 69 34 c117 57 212 173
246 300 6 24 11 75 11 115 0 148 -71 284 -191 364 -109 73 -98 72 -704 72
-298 0 -665 3 -816 7 l-275 6 3 1211 c2 885 0 1226 -8 1266 -39 183 -190 330
-370 359 -78 13 -79 13 -156 -4z" />
        <path
            d="M20410 2847 c-354 -665 -790 -1198 -1385 -1692 -77 -64 -141 -121
-143 -126 -5 -13 999 -12 1113 1 132 15 225 43 363 110 l122 60 0 885 c0 487
-1 885 -2 885 -2 0 -32 -56 -68 -123z" />
    </g>
</svg>